<mxfile host="app.diagrams.net" agent="Mozilla/5.0 (Windows NT 10.0; Win64; x64) AppleWebKit/537.36 (KHTML, like Gecko) Chrome/136.0.0.0 Safari/537.36 Edg/136.0.0.0" version="27.0.5">
  <diagram name="Page-1" id="HVKygkAhP3OE_UrIWdc7">
    <mxGraphModel dx="2452" dy="1035" grid="1" gridSize="10" guides="1" tooltips="1" connect="1" arrows="1" fold="1" page="1" pageScale="1" pageWidth="850" pageHeight="1100" math="0" shadow="0">
      <root>
        <mxCell id="0" />
        <mxCell id="1" parent="0" />
        <mxCell id="OYDAIeJwHk2ZWw7TDh-2-5" value="" style="edgeStyle=orthogonalEdgeStyle;rounded=0;orthogonalLoop=1;jettySize=auto;html=1;" parent="1" source="OYDAIeJwHk2ZWw7TDh-2-2" target="OYDAIeJwHk2ZWw7TDh-2-3" edge="1">
          <mxGeometry relative="1" as="geometry" />
        </mxCell>
        <mxCell id="OYDAIeJwHk2ZWw7TDh-2-2" value="Checking" style="shape=parallelogram;html=1;strokeWidth=2;perimeter=parallelogramPerimeter;whiteSpace=wrap;rounded=1;arcSize=12;size=0.23;" parent="1" vertex="1">
          <mxGeometry x="440" y="140" width="100" height="60" as="geometry" />
        </mxCell>
        <mxCell id="OYDAIeJwHk2ZWw7TDh-2-7" value="" style="edgeStyle=orthogonalEdgeStyle;rounded=0;orthogonalLoop=1;jettySize=auto;html=1;entryX=0.6;entryY=0;entryDx=0;entryDy=0;entryPerimeter=0;" parent="1" source="OYDAIeJwHk2ZWw7TDh-2-3" target="OYDAIeJwHk2ZWw7TDh-2-9" edge="1">
          <mxGeometry relative="1" as="geometry">
            <mxPoint x="60" y="180" as="targetPoint" />
          </mxGeometry>
        </mxCell>
        <mxCell id="OYDAIeJwHk2ZWw7TDh-2-3" value="Master&lt;div&gt;User&lt;/div&gt;" style="strokeWidth=2;html=1;shape=mxgraph.flowchart.database;whiteSpace=wrap;fillColor=#dae8fc;strokeColor=#6c8ebf;" parent="1" vertex="1">
          <mxGeometry x="270" y="140" width="60" height="60" as="geometry" />
        </mxCell>
        <mxCell id="OYDAIeJwHk2ZWw7TDh-2-8" value="Login" style="whiteSpace=wrap;html=1;strokeWidth=2;" parent="1" vertex="1">
          <mxGeometry x="440" y="30" width="120" height="60" as="geometry" />
        </mxCell>
        <mxCell id="OYDAIeJwHk2ZWw7TDh-2-19" style="edgeStyle=orthogonalEdgeStyle;rounded=0;orthogonalLoop=1;jettySize=auto;html=1;exitX=1;exitY=0.5;exitDx=0;exitDy=0;" parent="1" source="OYDAIeJwHk2ZWw7TDh-2-9" edge="1">
          <mxGeometry relative="1" as="geometry">
            <mxPoint x="160" y="350" as="targetPoint" />
          </mxGeometry>
        </mxCell>
        <mxCell id="OYDAIeJwHk2ZWw7TDh-2-22" value="tidak" style="edgeLabel;html=1;align=center;verticalAlign=middle;resizable=0;points=[];" parent="OYDAIeJwHk2ZWw7TDh-2-19" vertex="1" connectable="0">
          <mxGeometry x="0.1666" y="2" relative="1" as="geometry">
            <mxPoint as="offset" />
          </mxGeometry>
        </mxCell>
        <mxCell id="OYDAIeJwHk2ZWw7TDh-2-20" style="edgeStyle=orthogonalEdgeStyle;rounded=0;orthogonalLoop=1;jettySize=auto;html=1;exitX=0;exitY=0.5;exitDx=0;exitDy=0;entryX=0.5;entryY=0;entryDx=0;entryDy=0;" parent="1" source="OYDAIeJwHk2ZWw7TDh-2-9" target="OYDAIeJwHk2ZWw7TDh-2-11" edge="1">
          <mxGeometry relative="1" as="geometry">
            <mxPoint x="-30" y="350" as="targetPoint" />
            <Array as="points">
              <mxPoint x="-30" y="220" />
            </Array>
          </mxGeometry>
        </mxCell>
        <mxCell id="OYDAIeJwHk2ZWw7TDh-2-21" value="ya" style="edgeLabel;html=1;align=center;verticalAlign=middle;resizable=0;points=[];" parent="OYDAIeJwHk2ZWw7TDh-2-20" vertex="1" connectable="0">
          <mxGeometry x="0.1603" y="-2" relative="1" as="geometry">
            <mxPoint as="offset" />
          </mxGeometry>
        </mxCell>
        <mxCell id="OYDAIeJwHk2ZWw7TDh-2-9" value="Process Data" style="shape=parallelogram;html=1;strokeWidth=2;perimeter=parallelogramPerimeter;whiteSpace=wrap;rounded=1;arcSize=12;size=0.23;" parent="1" vertex="1">
          <mxGeometry x="10" y="190" width="100" height="60" as="geometry" />
        </mxCell>
        <mxCell id="OYDAIeJwHk2ZWw7TDh-2-31" value="" style="edgeStyle=orthogonalEdgeStyle;rounded=0;orthogonalLoop=1;jettySize=auto;html=1;" parent="1" source="OYDAIeJwHk2ZWw7TDh-2-11" target="OYDAIeJwHk2ZWw7TDh-2-30" edge="1">
          <mxGeometry relative="1" as="geometry" />
        </mxCell>
        <mxCell id="OYDAIeJwHk2ZWw7TDh-2-58" style="edgeStyle=orthogonalEdgeStyle;rounded=0;orthogonalLoop=1;jettySize=auto;html=1;exitX=1;exitY=0.5;exitDx=0;exitDy=0;entryX=0;entryY=0.5;entryDx=0;entryDy=0;" parent="1" source="OYDAIeJwHk2ZWw7TDh-2-11" target="OYDAIeJwHk2ZWw7TDh-2-57" edge="1">
          <mxGeometry relative="1" as="geometry" />
        </mxCell>
        <mxCell id="OYDAIeJwHk2ZWw7TDh-2-11" value="Main Menu" style="whiteSpace=wrap;html=1;strokeWidth=2;" parent="1" vertex="1">
          <mxGeometry x="-90" y="460" width="120" height="60" as="geometry" />
        </mxCell>
        <mxCell id="OYDAIeJwHk2ZWw7TDh-2-26" value="" style="edgeStyle=orthogonalEdgeStyle;rounded=0;orthogonalLoop=1;jettySize=auto;html=1;" parent="1" source="OYDAIeJwHk2ZWw7TDh-2-16" target="OYDAIeJwHk2ZWw7TDh-2-25" edge="1">
          <mxGeometry relative="1" as="geometry" />
        </mxCell>
        <mxCell id="OYDAIeJwHk2ZWw7TDh-2-16" value="Register Data" style="whiteSpace=wrap;html=1;strokeWidth=2;" parent="1" vertex="1">
          <mxGeometry x="100" y="360" width="120" height="60" as="geometry" />
        </mxCell>
        <mxCell id="OYDAIeJwHk2ZWw7TDh-2-24" style="edgeStyle=orthogonalEdgeStyle;rounded=0;orthogonalLoop=1;jettySize=auto;html=1;exitX=0.5;exitY=1;exitDx=0;exitDy=0;entryX=0.593;entryY=0.011;entryDx=0;entryDy=0;entryPerimeter=0;" parent="1" source="OYDAIeJwHk2ZWw7TDh-2-8" target="OYDAIeJwHk2ZWw7TDh-2-2" edge="1">
          <mxGeometry relative="1" as="geometry" />
        </mxCell>
        <mxCell id="OYDAIeJwHk2ZWw7TDh-2-29" style="edgeStyle=orthogonalEdgeStyle;rounded=0;orthogonalLoop=1;jettySize=auto;html=1;exitX=1;exitY=0.5;exitDx=0;exitDy=0;entryX=1;entryY=0.5;entryDx=0;entryDy=0;" parent="1" source="OYDAIeJwHk2ZWw7TDh-2-25" target="OYDAIeJwHk2ZWw7TDh-2-8" edge="1">
          <mxGeometry relative="1" as="geometry" />
        </mxCell>
        <mxCell id="OYDAIeJwHk2ZWw7TDh-2-25" value="Register" style="shape=parallelogram;html=1;strokeWidth=2;perimeter=parallelogramPerimeter;whiteSpace=wrap;rounded=1;arcSize=12;size=0.23;" parent="1" vertex="1">
          <mxGeometry x="250" y="360" width="100" height="60" as="geometry" />
        </mxCell>
        <mxCell id="OYDAIeJwHk2ZWw7TDh-2-27" style="edgeStyle=orthogonalEdgeStyle;rounded=0;orthogonalLoop=1;jettySize=auto;html=1;exitX=0.5;exitY=0;exitDx=0;exitDy=0;entryX=0.5;entryY=1;entryDx=0;entryDy=0;entryPerimeter=0;" parent="1" source="OYDAIeJwHk2ZWw7TDh-2-25" target="OYDAIeJwHk2ZWw7TDh-2-3" edge="1">
          <mxGeometry relative="1" as="geometry" />
        </mxCell>
        <mxCell id="OYDAIeJwHk2ZWw7TDh-2-28" value="Save Data Baru" style="edgeLabel;html=1;align=center;verticalAlign=middle;resizable=0;points=[];" parent="OYDAIeJwHk2ZWw7TDh-2-27" vertex="1" connectable="0">
          <mxGeometry x="-0.1412" y="-1" relative="1" as="geometry">
            <mxPoint as="offset" />
          </mxGeometry>
        </mxCell>
        <mxCell id="OYDAIeJwHk2ZWw7TDh-2-34" style="edgeStyle=orthogonalEdgeStyle;rounded=0;orthogonalLoop=1;jettySize=auto;html=1;exitX=0;exitY=0.5;exitDx=0;exitDy=0;entryX=0.5;entryY=0;entryDx=0;entryDy=0;" parent="1" source="OYDAIeJwHk2ZWw7TDh-2-30" target="OYDAIeJwHk2ZWw7TDh-2-32" edge="1">
          <mxGeometry relative="1" as="geometry" />
        </mxCell>
        <mxCell id="OYDAIeJwHk2ZWw7TDh-2-37" value="Belum Pernah" style="edgeLabel;html=1;align=center;verticalAlign=middle;resizable=0;points=[];" parent="OYDAIeJwHk2ZWw7TDh-2-34" vertex="1" connectable="0">
          <mxGeometry x="0.3912" y="2" relative="1" as="geometry">
            <mxPoint as="offset" />
          </mxGeometry>
        </mxCell>
        <mxCell id="OYDAIeJwHk2ZWw7TDh-2-35" style="edgeStyle=orthogonalEdgeStyle;rounded=0;orthogonalLoop=1;jettySize=auto;html=1;exitX=1;exitY=0.5;exitDx=0;exitDy=0;" parent="1" source="OYDAIeJwHk2ZWw7TDh-2-30" edge="1">
          <mxGeometry relative="1" as="geometry">
            <mxPoint x="80" y="720" as="targetPoint" />
          </mxGeometry>
        </mxCell>
        <mxCell id="OYDAIeJwHk2ZWw7TDh-2-36" value="Pernah Chat" style="edgeLabel;html=1;align=center;verticalAlign=middle;resizable=0;points=[];" parent="OYDAIeJwHk2ZWw7TDh-2-35" vertex="1" connectable="0">
          <mxGeometry x="0.268" y="-5" relative="1" as="geometry">
            <mxPoint as="offset" />
          </mxGeometry>
        </mxCell>
        <mxCell id="OYDAIeJwHk2ZWw7TDh-2-30" value="Chat" style="shape=parallelogram;html=1;strokeWidth=2;perimeter=parallelogramPerimeter;whiteSpace=wrap;rounded=1;arcSize=12;size=0.23;" parent="1" vertex="1">
          <mxGeometry x="-80" y="590" width="100" height="60" as="geometry" />
        </mxCell>
        <mxCell id="OYDAIeJwHk2ZWw7TDh-2-40" style="edgeStyle=orthogonalEdgeStyle;rounded=0;orthogonalLoop=1;jettySize=auto;html=1;exitX=0.5;exitY=1;exitDx=0;exitDy=0;entryX=0;entryY=0.5;entryDx=0;entryDy=0;" parent="1" source="OYDAIeJwHk2ZWw7TDh-2-32" target="OYDAIeJwHk2ZWw7TDh-2-38" edge="1">
          <mxGeometry relative="1" as="geometry">
            <Array as="points">
              <mxPoint x="-160" y="900" />
            </Array>
          </mxGeometry>
        </mxCell>
        <mxCell id="OYDAIeJwHk2ZWw7TDh-2-46" value="" style="edgeStyle=orthogonalEdgeStyle;rounded=0;orthogonalLoop=1;jettySize=auto;html=1;" parent="1" source="OYDAIeJwHk2ZWw7TDh-2-32" target="OYDAIeJwHk2ZWw7TDh-2-45" edge="1">
          <mxGeometry relative="1" as="geometry" />
        </mxCell>
        <mxCell id="OYDAIeJwHk2ZWw7TDh-2-32" value="Tab Contact" style="whiteSpace=wrap;html=1;strokeWidth=2;" parent="1" vertex="1">
          <mxGeometry x="-220" y="720" width="120" height="60" as="geometry" />
        </mxCell>
        <mxCell id="OYDAIeJwHk2ZWw7TDh-2-39" style="edgeStyle=orthogonalEdgeStyle;rounded=0;orthogonalLoop=1;jettySize=auto;html=1;exitX=0.5;exitY=1;exitDx=0;exitDy=0;entryX=1;entryY=0.5;entryDx=0;entryDy=0;" parent="1" source="OYDAIeJwHk2ZWw7TDh-2-33" target="OYDAIeJwHk2ZWw7TDh-2-38" edge="1">
          <mxGeometry relative="1" as="geometry">
            <Array as="points">
              <mxPoint x="90" y="900" />
            </Array>
          </mxGeometry>
        </mxCell>
        <mxCell id="OYDAIeJwHk2ZWw7TDh-2-33" value="Tab Chat" style="whiteSpace=wrap;html=1;strokeWidth=2;" parent="1" vertex="1">
          <mxGeometry x="30" y="720" width="120" height="60" as="geometry" />
        </mxCell>
        <mxCell id="OYDAIeJwHk2ZWw7TDh-2-43" value="" style="edgeStyle=orthogonalEdgeStyle;rounded=0;orthogonalLoop=1;jettySize=auto;html=1;" parent="1" source="OYDAIeJwHk2ZWw7TDh-2-38" target="OYDAIeJwHk2ZWw7TDh-2-42" edge="1">
          <mxGeometry relative="1" as="geometry" />
        </mxCell>
        <mxCell id="OYDAIeJwHk2ZWw7TDh-2-38" value="Klik Grid" style="shape=parallelogram;html=1;strokeWidth=2;perimeter=parallelogramPerimeter;whiteSpace=wrap;rounded=1;arcSize=12;size=0.23;" parent="1" vertex="1">
          <mxGeometry x="-80" y="870" width="100" height="60" as="geometry" />
        </mxCell>
        <mxCell id="OYDAIeJwHk2ZWw7TDh-2-42" value="Menu Chat" style="whiteSpace=wrap;html=1;strokeWidth=2;" parent="1" vertex="1">
          <mxGeometry x="-90" y="1030" width="120" height="60" as="geometry" />
        </mxCell>
        <mxCell id="OYDAIeJwHk2ZWw7TDh-2-44" value="History Chat" style="strokeWidth=2;html=1;shape=mxgraph.flowchart.database;whiteSpace=wrap;fillColor=#d5e8d4;strokeColor=#82b366;" parent="1" vertex="1">
          <mxGeometry x="230" y="720" width="60" height="60" as="geometry" />
        </mxCell>
        <mxCell id="OYDAIeJwHk2ZWw7TDh-2-49" style="edgeStyle=orthogonalEdgeStyle;rounded=0;orthogonalLoop=1;jettySize=auto;html=1;exitX=0.5;exitY=1;exitDx=0;exitDy=0;exitPerimeter=0;entryX=0;entryY=0.5;entryDx=0;entryDy=0;" parent="1" source="OYDAIeJwHk2ZWw7TDh-2-45" target="OYDAIeJwHk2ZWw7TDh-2-48" edge="1">
          <mxGeometry relative="1" as="geometry">
            <Array as="points">
              <mxPoint x="-330" y="760" />
            </Array>
          </mxGeometry>
        </mxCell>
        <mxCell id="OYDAIeJwHk2ZWw7TDh-2-45" value="Master&lt;div&gt;User&lt;/div&gt;" style="strokeWidth=2;html=1;shape=mxgraph.flowchart.database;whiteSpace=wrap;fillColor=#dae8fc;strokeColor=#6c8ebf;" parent="1" vertex="1">
          <mxGeometry x="-360" y="720" width="60" height="60" as="geometry" />
        </mxCell>
        <mxCell id="OYDAIeJwHk2ZWw7TDh-2-48" value="Data User" style="shape=parallelogram;html=1;strokeWidth=2;perimeter=parallelogramPerimeter;whiteSpace=wrap;rounded=1;arcSize=12;size=0.23;" parent="1" vertex="1">
          <mxGeometry x="-320" y="830" width="100" height="60" as="geometry" />
        </mxCell>
        <mxCell id="OYDAIeJwHk2ZWw7TDh-2-50" style="edgeStyle=orthogonalEdgeStyle;rounded=0;orthogonalLoop=1;jettySize=auto;html=1;exitX=1;exitY=0.5;exitDx=0;exitDy=0;entryX=0.184;entryY=1.029;entryDx=0;entryDy=0;entryPerimeter=0;" parent="1" source="OYDAIeJwHk2ZWw7TDh-2-48" target="OYDAIeJwHk2ZWw7TDh-2-32" edge="1">
          <mxGeometry relative="1" as="geometry">
            <Array as="points">
              <mxPoint x="-198" y="860" />
            </Array>
          </mxGeometry>
        </mxCell>
        <mxCell id="OYDAIeJwHk2ZWw7TDh-2-51" style="edgeStyle=orthogonalEdgeStyle;rounded=0;orthogonalLoop=1;jettySize=auto;html=1;exitX=1;exitY=0.5;exitDx=0;exitDy=0;entryX=0;entryY=0.5;entryDx=0;entryDy=0;entryPerimeter=0;" parent="1" source="OYDAIeJwHk2ZWw7TDh-2-33" target="OYDAIeJwHk2ZWw7TDh-2-44" edge="1">
          <mxGeometry relative="1" as="geometry" />
        </mxCell>
        <mxCell id="OYDAIeJwHk2ZWw7TDh-2-54" style="edgeStyle=orthogonalEdgeStyle;rounded=0;orthogonalLoop=1;jettySize=auto;html=1;exitX=0;exitY=0.5;exitDx=0;exitDy=0;entryX=0.75;entryY=1;entryDx=0;entryDy=0;" parent="1" source="OYDAIeJwHk2ZWw7TDh-2-52" target="OYDAIeJwHk2ZWw7TDh-2-33" edge="1">
          <mxGeometry relative="1" as="geometry" />
        </mxCell>
        <mxCell id="OYDAIeJwHk2ZWw7TDh-2-52" value="Data Chat" style="shape=parallelogram;html=1;strokeWidth=2;perimeter=parallelogramPerimeter;whiteSpace=wrap;rounded=1;arcSize=12;size=0.23;" parent="1" vertex="1">
          <mxGeometry x="200" y="830" width="100" height="60" as="geometry" />
        </mxCell>
        <mxCell id="OYDAIeJwHk2ZWw7TDh-2-53" style="edgeStyle=orthogonalEdgeStyle;rounded=0;orthogonalLoop=1;jettySize=auto;html=1;exitX=0.5;exitY=1;exitDx=0;exitDy=0;exitPerimeter=0;entryX=0.609;entryY=-0.02;entryDx=0;entryDy=0;entryPerimeter=0;" parent="1" source="OYDAIeJwHk2ZWw7TDh-2-44" target="OYDAIeJwHk2ZWw7TDh-2-52" edge="1">
          <mxGeometry relative="1" as="geometry" />
        </mxCell>
        <mxCell id="OYDAIeJwHk2ZWw7TDh-2-59" style="edgeStyle=orthogonalEdgeStyle;rounded=0;orthogonalLoop=1;jettySize=auto;html=1;exitX=1;exitY=0.5;exitDx=0;exitDy=0;entryX=0.5;entryY=0;entryDx=0;entryDy=0;" parent="1" source="OYDAIeJwHk2ZWw7TDh-2-57" target="OYDAIeJwHk2ZWw7TDh-2-8" edge="1">
          <mxGeometry relative="1" as="geometry">
            <Array as="points">
              <mxPoint x="710" y="490" />
              <mxPoint x="710" y="10" />
              <mxPoint x="500" y="10" />
            </Array>
          </mxGeometry>
        </mxCell>
        <mxCell id="OYDAIeJwHk2ZWw7TDh-2-57" value="Logout" style="shape=parallelogram;html=1;strokeWidth=2;perimeter=parallelogramPerimeter;whiteSpace=wrap;rounded=1;arcSize=12;size=0.23;" parent="1" vertex="1">
          <mxGeometry x="240" y="460" width="100" height="60" as="geometry" />
        </mxCell>
      </root>
    </mxGraphModel>
  </diagram>
</mxfile>
